<?xml version="1.0" encoding="UTF-8"?>
<svg xmlns="http://www.w3.org/2000/svg" xmlns:xlink="http://www.w3.org/1999/xlink" viewBox="0 0 512.29 503.81">
  <defs>
    <style>
      .cls-1 {
        fill: url(#linear-gradient);
      }

      .cls-1, .cls-2, .cls-3, .cls-4, .cls-5, .cls-6, .cls-7, .cls-8, .cls-9, .cls-10, .cls-11 {
        stroke-width: 0px;
      }

      .cls-1, .cls-2, .cls-5, .cls-9, .cls-10 {
        mix-blend-mode: multiply;
      }

      .cls-1, .cls-10 {
        opacity: .4;
      }

      .cls-12 {
        isolation: isolate;
      }

      .cls-2 {
        fill: url(#linear-gradient-3);
      }

      .cls-2, .cls-5, .cls-9 {
        opacity: .55;
      }

      .cls-3 {
        fill: #7be1f6;
      }

      .cls-4 {
        fill: #3c0581;
      }

      .cls-5 {
        fill: url(#linear-gradient-4);
      }

      .cls-6 {
        fill: #fff;
      }

      .cls-7 {
        fill: #ec39a1;
      }

      .cls-8 {
        fill: #f6d41b;
      }

      .cls-9 {
        fill: url(#linear-gradient-5);
      }

      .cls-10 {
        fill: url(#linear-gradient-2);
      }

      .cls-11 {
        fill: #ec942c;
      }
    </style>
    <linearGradient id="linear-gradient" x1="206.47" y1="242.87" x2="345.12" y2="242.87" gradientUnits="userSpaceOnUse">
      <stop offset=".12" stop-color="#fff"/>
      <stop offset="1" stop-color="#000"/>
    </linearGradient>
    <linearGradient id="linear-gradient-2" x1=".72" y1="272.86" x2="139.37" y2="272.86" xlink:href="#linear-gradient"/>
    <linearGradient id="linear-gradient-3" x1="194.97" y1="379.33" x2="256.43" y2="379.33" xlink:href="#linear-gradient"/>
    <linearGradient id="linear-gradient-4" x1="195.29" y1="213.84" x2="251.12" y2="213.84" xlink:href="#linear-gradient"/>
    <linearGradient id="linear-gradient-5" x1="401.75" y1="193.12" x2="456.07" y2="193.12" xlink:href="#linear-gradient"/>
  </defs>
  <g class="cls-12">
    <g id="Layer_1" data-name="Layer 1">
      <g>
        <path class="cls-11" d="m132.24,204.31l27.91,15.18c4.91,1.11,9.34,2.75,13.3,4.91l-27.91-15.18c-3.96-2.16-8.38-3.8-13.3-4.91Z"/>
        <path class="cls-11" d="m132.25,260.26l-27.91-15.18c9.34,5.08,13.49,17.2,13.45,39.58l-.06,33.65c-.05,28.68-10.29,39.5-29.2,42.16l-32.21,4.53,27.91,15.18,32.21-4.53c18.9-2.66,29.14-13.47,29.2-42.16l.06-33.65c.04-22.38-4.11-34.5-13.45-39.58Z"/>
        <path class="cls-11" d="m78.63,188.13l-21.98,3.09,27.91,15.18,21.98-3.09c20.95-2.94,33.74-14.67,33.8-45.57l.04-21.51c.03-18.23-3.74-29.17-12.05-33.69l-27.91-15.18c8.31,4.52,12.08,15.47,12.05,33.69l-.04,21.51c-.06,30.9-12.85,42.62-33.8,45.57Z"/>
        <path class="cls-11" d="m166.95,51.05l-27.91-15.18c-13.09-7.12-30.75-9.08-53.48-5.89L.72,41.9l-.72,386.15,27.91,15.18.72-386.15,84.84-11.92c22.73-3.19,40.39-1.23,53.48,5.89Z"/>
        <path class="cls-11" d="m334.27,73.45l-27.91-15.18c7.28,3.96,11.1,13.35,11.06,30.68l-.09,45.78c-.05,27.58-9.78,37.78-27.66,40.29l-26.57,3.73,27.91,15.18,26.57-3.73c17.88-2.51,27.61-12.71,27.66-40.29l.09-45.78c.03-17.33-3.78-26.72-11.06-30.68Z"/>
        <path class="cls-11" d="m368.5,22.8l-27.91-15.18c-12.99-7.07-29.83-9.28-50.59-6.37l-82.8,11.64-.72,386.15,27.91,15.18.72-386.15,82.8-11.64c20.75-2.92,37.6-.7,50.59,6.37Z"/>
      </g>
      <g>
        <path class="cls-8" d="m159.69,219.45l27.91,15.18c4.91,1.11,9.34,2.75,13.3,4.91l-27.91-15.18c-3.96-2.16-8.38-3.8-13.3-4.91Z"/>
        <path class="cls-8" d="m159.69,275.41l-27.91-15.18c9.34,5.08,13.49,17.2,13.45,39.58l-.06,33.65c-.05,28.68-10.29,39.5-29.2,42.16l-32.21,4.53,27.91,15.18,32.21-4.53c18.9-2.66,29.14-13.47,29.2-42.16l.06-33.65c.04-22.38-4.11-34.5-13.45-39.58Z"/>
        <path class="cls-8" d="m106.08,203.28l-21.98,3.09,27.91,15.18,21.98-3.09c20.95-2.94,33.74-14.67,33.8-45.57l.04-21.51c.03-18.23-3.74-29.17-12.05-33.69l-27.91-15.18c8.31,4.52,12.08,15.47,12.05,33.69l-.04,21.51c-.06,30.9-12.85,42.62-33.8,45.57Z"/>
        <path class="cls-8" d="m194.4,66.2l-27.91-15.18c-13.09-7.12-30.75-9.08-53.48-5.89l-84.84,11.92-.72,386.15,27.91,15.18.72-386.15,84.84-11.92c22.73-3.19,40.39-1.23,53.48,5.89Z"/>
        <path class="cls-8" d="m361.71,88.59l-27.91-15.18c7.28,3.96,11.1,13.35,11.06,30.68l-.09,45.78c-.05,27.58-9.78,37.78-27.66,40.29l-26.57,3.73,27.91,15.18,26.57-3.73c17.88-2.51,27.61-12.71,27.66-40.29l.09-45.78c.03-17.33-3.78-26.72-11.06-30.68Z"/>
        <path class="cls-8" d="m395.94,37.94l-27.91-15.18c-12.99-7.07-29.83-9.28-50.59-6.37l-82.8,11.64-.72,386.15,27.91,15.18.72-386.15,82.8-11.64c20.75-2.92,37.6-.7,50.59,6.37Z"/>
      </g>
      <g>
        <path class="cls-7" d="m187.14,234.6l27.91,15.18c4.91,1.11,9.34,2.75,13.3,4.91l-27.91-15.18c-3.96-2.16-8.38-3.8-13.3-4.91Z"/>
        <path class="cls-7" d="m187.14,290.55l-27.91-15.18c9.34,5.08,13.49,17.2,13.45,39.58l-.06,33.65c-.05,28.68-10.29,39.5-29.2,42.16l-32.21,4.53,27.91,15.18,32.21-4.53c18.9-2.66,29.14-13.47,29.2-42.16l.06-33.65c.04-22.38-4.11-34.5-13.45-39.58Z"/>
        <path class="cls-7" d="m133.52,218.42l-21.98,3.09,27.91,15.18,21.98-3.09c20.95-2.94,33.74-14.67,33.8-45.57l.04-21.51c.03-18.23-3.74-29.17-12.05-33.69l-27.91-15.18c8.31,4.52,12.08,15.47,12.05,33.69l-.04,21.51c-.06,30.9-12.85,42.62-33.8,45.57Z"/>
        <path class="cls-7" d="m221.85,81.34l-27.91-15.18c-13.09-7.12-30.75-9.08-53.48-5.89l-84.84,11.92-.72,386.15,27.91,15.18.72-386.15,84.84-11.92c22.73-3.19,40.39-1.23,53.48,5.89Z"/>
        <path class="cls-7" d="m389.16,103.73l-27.91-15.18c7.28,3.96,11.1,13.35,11.06,30.68l-.09,45.78c-.05,27.58-9.78,37.78-27.66,40.29l-26.57,3.73,27.91,15.18,26.57-3.73c17.88-2.51,27.61-12.71,27.66-40.29l.09-45.78c.03-17.33-3.78-26.72-11.06-30.68Z"/>
        <path class="cls-7" d="m423.39,53.09l-27.91-15.18c-12.99-7.07-29.83-9.28-50.59-6.37l-82.8,11.64-.72,386.15,27.91,15.18.72-386.15,82.8-11.64c20.75-2.92,37.6-.7,50.59,6.37Z"/>
      </g>
      <g>
        <path class="cls-4" d="m215.27,249.74l27.91,15.18c4.91,1.11,9.34,2.75,13.3,4.91l-27.91-15.18c-3.96-2.16-8.38-3.8-13.3-4.91Z"/>
        <path class="cls-4" d="m215.28,305.7l-27.91-15.18c9.34,5.08,13.49,17.2,13.45,39.58l-.06,33.65c-.05,28.68-10.29,39.5-29.2,42.16l-32.21,4.53,27.91,15.18,32.21-4.53c18.9-2.66,29.14-13.47,29.2-42.16l.06-33.65c.04-22.38-4.11-34.5-13.45-39.58Z"/>
        <path class="cls-4" d="m161.66,233.56l-21.98,3.09,27.91,15.18,21.98-3.09c20.95-2.94,33.74-14.67,33.8-45.57l.04-21.51c.03-18.23-3.74-29.17-12.05-33.69l-27.91-15.18c8.31,4.52,12.08,15.47,12.05,33.69l-.04,21.51c-.06,30.9-12.85,42.62-33.8,45.57Z"/>
        <path class="cls-4" d="m249.98,96.48l-27.91-15.18c-13.09-7.12-30.75-9.08-53.48-5.89l-84.84,11.92-.72,386.15,27.91,15.18.72-386.15,84.84-11.92c22.73-3.19,40.39-1.23,53.48,5.89Z"/>
        <path class="cls-4" d="m417.3,118.88l-27.91-15.18c7.28,3.96,11.1,13.35,11.06,30.68l-.09,45.78c-.05,27.58-9.78,37.78-27.66,40.29l-26.57,3.73,27.91,15.18,26.57-3.73c17.88-2.51,27.61-12.71,27.66-40.29l.09-45.78c.03-17.33-3.78-26.72-11.06-30.68Z"/>
        <path class="cls-4" d="m451.53,68.23l-27.91-15.18c-12.99-7.07-29.83-9.28-50.59-6.37l-82.8,11.64-.72,386.15,27.91,15.18.72-386.15,82.8-11.64c20.75-2.92,37.6-.7,50.59,6.37Z"/>
      </g>
      <g>
        <path class="cls-3" d="m242.98,264.88l27.91,15.18c4.91,1.11,9.34,2.75,13.3,4.91l-27.91-15.18c-3.96-2.16-8.38-3.8-13.3-4.91Z"/>
        <path class="cls-3" d="m242.98,320.84l-27.91-15.18c9.34,5.08,13.49,17.2,13.45,39.58l-.06,33.65c-.05,28.68-10.29,39.5-29.2,42.16l-32.21,4.53,27.91,15.18,32.21-4.53c18.9-2.66,29.14-13.47,29.2-42.16l.06-33.65c.04-22.38-4.11-34.5-13.45-39.58Z"/>
        <path class="cls-3" d="m189.36,248.71l-21.98,3.09,27.91,15.18,21.98-3.09c20.95-2.94,33.74-14.67,33.8-45.57l.04-21.51c.03-18.23-3.74-29.17-12.05-33.69l-27.91-15.18c8.31,4.52,12.08,15.47,12.05,33.69l-.04,21.51c-.06,30.9-12.85,42.62-33.8,45.57Z"/>
        <path class="cls-3" d="m277.69,111.63l-27.91-15.18c-13.09-7.12-30.75-9.08-53.48-5.89l-84.84,11.92-.72,386.15,27.91,15.18.72-386.15,84.84-11.92c22.73-3.19,40.39-1.23,53.48,5.89Z"/>
        <path class="cls-3" d="m445,134.02l-27.91-15.18c7.28,3.96,11.1,13.35,11.06,30.68l-.09,45.78c-.05,27.58-9.78,37.78-27.66,40.29l-26.57,3.73,27.91,15.18,26.57-3.73c17.88-2.51,27.61-12.71,27.66-40.29l.09-45.78c.03-17.33-3.78-26.72-11.06-30.68Z"/>
        <path class="cls-3" d="m479.23,83.37l-27.91-15.18c-12.99-7.07-29.83-9.28-50.59-6.37l-82.8,11.64-.72,386.15,27.91,15.18.72-386.15,82.8-11.64c20.75-2.92,37.6-.7,50.59,6.37Z"/>
      </g>
      <path class="cls-1" d="m206.47,11.92v134.17c4.33-.43,8.68-.69,13.04-.91,8.89-.44,17.97-1.63,26.88-1.12,15.08.86,23.93,10.17,28.56,24.13,6.5,19.6-2.56,37.36-8.38,55.73-5.33,16.81-7.8,36.5-21.34,49.16-10.52,9.85-24.78,14.32-38.76,16.99v18.34c1.26-.49,2.49-1.01,3.72-1.43,3.97-1.36,8.17-1.74,12.35-1.67,7.55.13,15.33,1,22.8,2.11,12.2,1.81,21.6,7.55,26.39,19.22,4.67,11.39,5.08,24.22,4.55,36.36-.54,12.3-2.37,24.48-3.22,36.76-.76,10.94-.07,22.36-4.12,32.61l75.47,41.45.72-386.15L206.47,11.92Z"/>
      <polygon class="cls-10" points=".72 41.9 .72 428.05 138.65 503.81 139.37 117.66 .72 41.9"/>
      <path class="cls-2" d="m256.43,360.01v.4l-.06,33.65c0,.9-.01,1.78-.04,2.64-.01.43-.02.85-.04,1.28,0,.42-.03.84-.05,1.26-.02.41-.04.82-.07,1.22-.02.32-.04.64-.06.95-.17,2.22-.41,4.31-.72,6.28-.08.49-.16.97-.25,1.44-.06.31-.12.61-.18.92s-.12.61-.19.91c-.11.49-.22.98-.34,1.46-.05.19-.1.39-.15.58-.11.42-.22.83-.34,1.24-.01.05-.03.1-.05.16-.11.4-.23.79-.36,1.17-.11.35-.23.69-.35,1.02-.06.18-.13.35-.19.52-.07.2-.15.4-.23.59-.02.06-.04.12-.07.18-.14.37-.29.73-.45,1.08-.46,1.06-.96,2.06-1.49,3-.19.34-.39.67-.59.99,0,.02-.02.03-.03.05-.02.03-.03.05-.05.08-.14.22-.28.43-.42.65-.16.24-.32.47-.48.7-.43.6-.87,1.18-1.33,1.72-.32.38-.64.73-.97,1.08-.31.33-.62.65-.95.96-.04.03-.08.07-.11.1-.36.34-.73.67-1.11.98-.35.3-.71.58-1.08.85-.31.23-.63.46-.96.68-.19.13-.39.26-.58.38-.55.36-1.12.69-1.7.99-.31.18-.62.34-.94.5-.21.11-.42.21-.64.3-.28.14-.57.27-.86.39-.2.09-.4.18-.61.25-.29.13-.58.24-.88.35-.22.09-.45.17-.69.25-.31.11-.63.22-.95.31-.22.08-.45.15-.68.21-.27.09-.54.17-.81.23-.29.09-.58.17-.88.24-.24.06-.47.12-.71.17-.37.09-.74.17-1.12.25-.5.11-1.02.21-1.54.3-.62.11-1.26.21-1.9.3l-32.21,4.53.04-19.04v-.07l.05-29.89v-.34l.13-69.27,5.17-.73.23-.03,6.03-.85,13.62-1.91c1.65-.23,3.24-.41,4.77-.53.06,0,.12,0,.18-.02h.01c3.24-.24,6.2-.21,8.9.11.16.01.32.03.47.05,2.95.4,5.57,1.15,7.88,2.32.03.01.05.03.08.04.15.08.3.16.45.25.26.14.51.28.76.43.1.06.19.12.29.18.22.13.43.27.63.42.27.18.54.38.8.58.52.4,1.02.82,1.5,1.28.24.23.48.46.71.71.24.24.46.49.68.75.22.25.43.52.65.79.21.27.42.55.62.84.2.29.4.59.59.89.2.3.39.61.57.93.14.23.27.47.39.71.05.09.1.18.14.27.18.34.35.68.51,1.03.17.35.33.71.48,1.08.16.35.3.72.45,1.09,0,.01.01.03.02.05.29.76.56,1.56.81,2.38.13.41.26.84.38,1.28.18.65.35,1.32.5,2.01.08.34.16.69.23,1.04.08.36.15.72.22,1.08.09.43.16.87.24,1.31,0,.06.02.12.03.18.17,1.01.32,2.04.45,3.12v.02c.06.42.11.85.15,1.28.11.97.2,1.97.28,3,.03.34.05.68.07,1.02.07.94.12,1.9.16,2.89.02.33.03.66.04,1,.02.5.04,1,.05,1.5.01.54.02,1.09.03,1.64.02.78.02,1.58.02,2.39Z"/>
      <path class="cls-5" d="m251.1,194.16c0-.56-.03-1.11-.05-1.65-.06-1.69-.15-3.31-.29-4.86-.04-.46-.08-.91-.13-1.36-.12-1.2-.28-2.36-.45-3.48-.06-.37-.12-.74-.19-1.1-.07-.43-.15-.85-.24-1.26-.08-.42-.17-.83-.27-1.24-.07-.32-.14-.63-.22-.93-.36-1.44-.78-2.8-1.26-4.06-.13-.36-.27-.72-.42-1.06-.34-.81-.7-1.58-1.09-2.31-.12-.22-.23-.43-.36-.64-.43-.75-.89-1.45-1.38-2.11-.15-.21-.31-.42-.47-.62-.12-.14-.23-.27-.35-.4-.19-.23-.39-.46-.6-.68-.23-.25-.47-.49-.71-.71-.12-.12-.25-.24-.38-.35-.22-.2-.45-.4-.69-.58-.27-.22-.54-.42-.82-.62-.11-.08-.22-.15-.34-.23-.23-.16-.47-.31-.71-.45-.1-.06-.2-.12-.3-.17-.28-.17-.56-.32-.85-.47-1.15-.57-2.37-1.02-3.68-1.36-.15-.04-.3-.08-.46-.11-3.38-.8-7.31-.87-11.81-.24l-1.53.21-.18.03-13.96,1.96-11.42,1.61c.01.52.01,1.04.01,1.56l-.04,21.51c0,.75-.01,1.5-.03,2.23l-.08,46.3v2.53s-.02,8.51-.02,8.51v.09l-.04,19.33,11.43-1.61,10.56-1.48c5.8-.81,10.96-2.3,15.41-4.68.52-.27,1.03-.56,1.52-.86v-.64l.47.25.08.05c10.36-6.55,16.28-18.69,16.32-39.69l.04-21.51c0-.9-.01-1.78-.02-2.65Zm-44.34,48.71v.07l.09.05s-.06.04-.09.06v-.11l-.06-.03s.04-.02.06-.04Z"/>
      <path class="cls-9" d="m456.07,164.7l-.09,45.78c-.05,27.58-9.78,37.78-27.66,40.29l-26.57,3.74.04-19.06v-.08l.18-99.47,24.42-3.43.2-.03,1.95-.27c6.48-.91,11.89-.51,16.15,1.68.1.06.21.11.31.17.45.25.89.51,1.32.8.43.29.84.6,1.24.94.18.15.35.3.53.46.41.37.8.77,1.17,1.19.18.2.36.4.53.62.03.03.05.05.07.08.14.19.29.38.43.57.17.22.33.45.49.69.32.47.62.97.91,1.49.14.25.28.51.41.78.01.02.02.04.03.06.27.53.52,1.09.76,1.67.02.04.04.09.06.14.23.55.44,1.13.64,1.73.11.31.21.63.31.95,0,.01,0,.03,0,.04.1.34.2.68.29,1.03.1.35.19.71.28,1.08.01.02.01.04.02.07.08.34.16.68.23,1.04.1.44.19.89.27,1.35.06.33.12.66.17,1,.16.94.29,1.93.41,2.95.03.29.06.59.09.89.17,1.74.29,3.59.35,5.56.01.26.02.52.02.78.02.88.03,1.79.03,2.72Z"/>
      <g>
        <path class="cls-6" d="m270.89,280.07v-1.1c25.07-14.55,36.36-40.96,36.44-80.68l.03-15.45c.11-59.58-24.88-85.29-83.15-77.1l-84.84,11.92-.72,386.15,88.42-12.43c56.22-7.9,85.41-43.99,85.52-103.57l.06-33.1c.08-40.83-11.63-67.86-41.77-74.65Zm-75.41-115.14l27.09-3.81c19.93-2.8,28.59,8.11,28.54,35.69l-.04,21.51c-.06,30.9-12.85,42.62-33.8,45.57l-21.98,3.09.19-102.06Zm60.89,229.14c-.05,28.68-10.29,39.5-29.2,42.16l-32.21,4.53.22-118.61,25.04-3.52c25.55-3.59,36.27,5.93,36.2,41.79l-.06,33.65Z"/>
        <path class="cls-6" d="m428.64,77.01l-82.8,11.64-.72,386.15,56.23-7.9.29-157.22,26.57-3.73c56.22-7.9,83.89-45.43,84-107.22l.07-38.06c.11-61.78-27.43-91.55-83.65-83.65Zm27.34,133.48c-.05,27.58-9.78,37.78-27.66,40.29l-26.57,3.73.22-118.61,26.57-3.73c17.88-2.51,27.58,4.95,27.53,32.53l-.09,45.78Z"/>
      </g>
    </g>
  </g>
</svg>